<svg width="72" height="72" viewBox="0 0 72 72" fill="none" xmlns="http://www.w3.org/2000/svg">
<path d="M41.292 8.625C56.2491 8.62524 68.377 20.7136 68.377 35.6289C68.3769 50.5442 56.249 62.6326 41.292 62.6328C26.3348 62.6327 14.2061 50.5443 14.2061 35.6289C14.2061 34.7958 14.2442 33.9714 14.3184 33.1572L14.8779 33.208L15.4385 33.2588C15.3842 33.8555 15.3509 34.4584 15.3379 35.0664H25.793C25.9403 23.0288 30.8035 12.9693 37.3594 10.0459C33.361 10.6513 29.6623 12.1647 26.4824 14.3701C26.2272 14.5471 25.8772 14.4837 25.7002 14.2285C25.5234 13.9733 25.5867 13.6233 25.8418 13.4463C30.224 10.4069 35.5504 8.62503 41.292 8.625ZM15.3389 36.1914C15.6108 48.8996 25.0717 59.3552 37.3672 61.2139C32.8722 59.2135 29.1708 53.8601 27.2393 46.8125C24.056 47.4631 21.3489 48.3269 19.3135 49.334L19.0645 48.8291L18.8154 48.3252C20.9362 47.2759 23.7172 46.3887 26.958 45.7227C26.2524 42.8111 25.8434 39.6376 25.7939 36.3115L25.793 36.1914H15.3389ZM55.3428 46.8135C53.411 53.8611 49.7101 59.214 45.2148 61.2139C52.8395 60.0618 59.3727 55.6027 63.3027 49.3516C61.2638 48.3373 58.5445 47.4678 55.3428 46.8135ZM41.667 60.9355C45.2489 60.7682 48.6711 58.2119 51.2832 53.7568C52.4869 51.7038 53.4911 49.2848 54.2344 46.5986C50.5287 45.9214 46.2466 45.5246 41.667 45.5039V60.9355ZM40.542 45.5059C36.1036 45.5459 31.9536 45.9407 28.3486 46.5996C29.0917 49.2854 30.0962 51.704 31.2998 53.7568C33.8208 58.0565 37.0966 60.5863 40.542 60.9082V45.5059ZM67.2441 36.1592C67.1882 36.1778 67.1296 36.1914 67.0674 36.1914H56.791L56.79 36.3115C56.7406 39.6377 56.3297 42.811 55.624 45.7227C58.9247 46.4009 61.7481 47.3089 63.8838 48.3838C65.9454 44.7629 67.1546 40.5983 67.2441 36.1592ZM26.918 36.1914C26.9594 39.4986 27.3655 42.6408 28.0645 45.5078C31.775 44.824 36.0253 44.4211 40.542 44.3809V36.1914H26.918ZM41.667 44.3789C46.3223 44.3997 50.7053 44.8043 54.5186 45.5068C55.2176 42.6401 55.6245 39.4982 55.666 36.1914H41.667V44.3789ZM63.9238 22.9463C61.7678 24.0084 58.9349 24.9034 55.6328 25.5703C56.3417 28.5074 56.7499 31.7099 56.791 35.0664H67.0674C67.1295 35.0664 67.1883 35.0791 67.2441 35.0977C67.1551 30.6882 65.9604 26.5501 63.9238 22.9463ZM28.0723 25.7168C27.3683 28.5928 26.9596 31.7465 26.918 35.0664H40.542V26.876C36.0141 26.8256 31.7668 26.4098 28.0723 25.7168ZM54.5264 25.7822C50.7044 26.474 46.3199 26.8685 41.667 26.8789V35.0664H55.666C55.6247 31.7716 55.2208 28.6406 54.5264 25.7822ZM15.1582 9.20215C21.0798 9.50118 25.7891 14.3827 25.7891 20.3604L25.7783 20.8447C25.675 23.2564 24.8054 25.4705 23.4053 27.25L24.4814 32.0908L19.8115 30.2441C18.2504 31.0668 16.4707 31.5322 14.582 31.5322L14.0049 31.5176C8.27457 31.2278 3.67999 26.6473 3.38965 20.9346L3.375 20.3604C3.375 14.19 8.39263 9.1875 14.582 9.1875L15.1582 9.20215ZM14.582 10.3125C9.01068 10.3125 4.5 14.8146 4.5 20.3604C4.50024 25.9059 9.01083 30.4072 14.582 30.4072C16.2838 30.4072 17.8838 29.9876 19.2871 29.248L19.7451 29.0078L20.2256 29.1973L22.9219 30.2637L22.3066 27.4941L22.1904 26.9727L22.5205 26.5537C23.8636 24.8467 24.664 22.6981 24.6641 20.3604C24.6641 14.8146 20.1533 10.3126 14.582 10.3125ZM41.667 25.7539C46.2432 25.7436 50.5277 25.3579 54.2432 24.6914C53.499 21.9924 52.4917 19.5622 51.2832 17.501C48.6711 13.0458 45.2489 10.4886 41.667 10.3213V25.7539ZM40.542 10.3486C37.0965 10.6705 33.8208 13.2013 31.2998 17.501C30.101 19.5457 29.0986 21.9529 28.3564 24.626C31.9592 25.2965 36.1088 25.701 40.542 25.751V10.3486ZM45.2158 10.043C49.7183 12.0463 53.4226 17.4149 55.3516 24.4795C58.5556 23.8364 61.2856 22.9795 63.3467 21.9766C59.4216 15.6888 52.8687 11.1996 45.2158 10.043ZM10.0996 19.6133C10.7174 19.6135 11.2178 20.1146 11.2178 20.7324C11.2178 21.3503 10.7174 21.8513 10.0996 21.8516C9.48162 21.8516 8.98047 21.3504 8.98047 20.7324C8.98048 20.1144 9.48163 19.6133 10.0996 19.6133ZM14.208 19.6133C14.826 19.6133 15.3271 20.1144 15.3271 20.7324C15.3271 21.3504 14.826 21.8516 14.208 21.8516C13.5902 21.8514 13.0898 21.3503 13.0898 20.7324C13.0899 20.1146 13.5902 19.6135 14.208 19.6133ZM18.6914 19.6133C19.3093 19.6134 19.8105 20.1145 19.8105 20.7324C19.8105 21.3503 19.3093 21.8514 18.6914 21.8516C18.0734 21.8516 17.5723 21.3504 17.5723 20.7324C17.5723 20.1144 18.0734 19.6133 18.6914 19.6133Z" fill="currentColor"/>
</svg>
