<svg width="72" height="72" viewBox="0 0 72 72" fill="none" xmlns="http://www.w3.org/2000/svg">
<path d="M35.8125 8.8125C50.7092 8.8125 62.7873 20.8765 62.8115 35.7676C62.8127 35.7825 62.8164 35.7973 62.8164 35.8125C62.8164 35.8274 62.8126 35.8419 62.8115 35.8564C62.7878 50.7479 50.7095 62.8125 35.8125 62.8125C26.0164 62.8125 17.4394 57.5952 12.707 49.7881C12.6128 49.7334 12.5325 49.6517 12.4805 49.5469C12.4422 49.4695 12.4238 49.3876 12.4219 49.3066C10.1266 45.3366 8.8125 40.7281 8.8125 35.8125C8.8125 20.9008 20.9008 8.8125 35.8125 8.8125ZM36.3848 48.4111L35.9941 48.7588L35.6113 48.4014C35.1349 47.9567 34.3257 47.1953 33.6367 46.5459C33.2922 46.2212 32.9768 45.9239 32.748 45.708C32.6748 45.6389 32.6104 45.5771 32.5566 45.5264C30.7319 45.6447 29.7285 46.3535 29.1641 47.1201C28.5559 47.9465 28.4014 48.9162 28.4014 49.5029V60.584C30.7492 61.2854 33.2366 61.6641 35.8125 61.6641C38.4602 61.6641 41.0147 61.2649 43.4199 60.5254C43.4563 58.4663 43.4397 55.0509 43.4258 52.2812C43.418 52.2438 43.4141 52.2048 43.4141 52.165C43.4141 52.0575 43.4178 51.9524 43.4238 51.8506C43.4195 50.9628 43.415 50.1564 43.415 49.5029C43.415 47.1016 41.5747 45.6208 39.6377 45.5195L36.3848 48.4111ZM19.4609 50.2666C19.083 50.2666 18.8441 50.3447 18.6895 50.4385C18.5377 50.5306 18.4265 50.6632 18.3428 50.8408C18.1594 51.2302 18.1338 51.7679 18.1338 52.3545V54.6357C18.1338 54.6465 18.1305 54.6573 18.1299 54.668C20.7256 57.1032 23.8238 59.0079 27.2529 60.2109V52.3545C27.2529 51.4166 26.9652 50.9226 26.6631 50.6553C26.3459 50.3747 25.9259 50.2667 25.5459 50.2666C23.8347 50.2666 21.3623 50.2666 19.4609 50.2666ZM46.2705 50.0771C45.8905 50.0772 45.4705 50.1853 45.1533 50.4658C44.881 50.7069 44.622 51.1319 44.5732 51.9004C44.5863 54.5563 44.6043 57.9437 44.5752 60.1396C48.0908 58.8731 51.2517 56.8658 53.8721 54.3066V52.165C53.8721 51.5784 53.8464 51.0408 53.6631 50.6514C53.5793 50.4736 53.4682 50.3412 53.3164 50.249C53.1618 50.1552 52.9229 50.0772 52.5449 50.0771C50.6436 50.0771 47.9816 50.0771 46.2705 50.0771ZM49.3379 25.1816C45.5017 25.9083 41.0856 26.3378 36.3867 26.3799V29.918C36.3867 30.2352 36.1297 30.4932 35.8125 30.4932C35.4953 30.4932 35.2383 30.2352 35.2383 29.918V26.3818C30.3963 26.3601 25.8448 25.928 21.9053 25.1816C21.0558 28.2494 20.5371 31.6471 20.4336 35.2383H28.3975C28.7144 35.2386 28.9717 35.4955 28.9717 35.8125C28.9717 36.1295 28.7144 36.3864 28.3975 36.3867H20.416C20.4158 36.4488 20.415 36.511 20.415 36.5732C20.415 37.7782 20.462 38.5879 20.5537 39.7607C20.5784 40.0769 20.3414 40.353 20.0254 40.3779C19.7093 40.4025 19.433 40.1667 19.4082 39.8506C19.3151 38.66 19.2666 37.8182 19.2666 36.5732C19.2666 36.511 19.2673 36.4488 19.2676 36.3867H9.96875C10.0647 40.7879 11.2601 44.9175 13.292 48.5127C14.5924 47.9145 16.1033 47.3754 17.7832 46.9033C18.0885 46.8175 18.4063 46.9955 18.4922 47.3008C18.5779 47.6061 18.3991 47.923 18.0938 48.0088C16.5064 48.4548 15.0929 48.9591 13.8838 49.5068C14.7857 50.948 15.8258 52.2933 16.9854 53.5254V52.3545C16.9853 51.8006 16.9945 51.0068 17.3037 50.3506C17.4663 50.0057 17.7166 49.6856 18.0928 49.457C18.4663 49.2302 18.9236 49.1182 19.4609 49.1182H25.5459C26.0632 49.1183 26.7024 49.2489 27.2529 49.6572V49.5029C27.2529 48.7588 27.4409 47.5229 28.2393 46.4385C29.058 45.3265 30.4653 44.4469 32.75 44.3652L32.9902 44.3564L33.165 44.5215L33.1719 44.5283C33.1762 44.5324 33.1833 44.5382 33.1914 44.5459C33.2083 44.5619 33.2328 44.5862 33.2646 44.6162C33.3288 44.6768 33.4221 44.7644 33.5361 44.8721C33.7648 45.0879 34.0804 45.3854 34.4248 45.71C34.9526 46.2074 35.5502 46.7686 36.0137 47.2031L39.0439 44.5098L39.207 44.3652H39.4258C41.9673 44.3653 44.5439 46.2734 44.5625 49.4678C45.1133 49.0592 45.753 48.9288 46.2705 48.9287H52.5449C53.0823 48.9287 53.5395 49.0407 53.9131 49.2676C54.2894 49.4962 54.5396 49.8161 54.7021 50.1611C55.0114 50.8174 55.0205 51.6112 55.0205 52.165V53.1123C55.9921 52.0342 56.8743 50.8743 57.6553 49.6436C56.62 49.1548 55.4232 48.6984 54.0859 48.2852C53.7831 48.1913 53.6134 47.8694 53.707 47.5664C53.8008 47.2638 54.122 47.0943 54.4248 47.1875C55.8473 47.6271 57.1332 48.1189 58.2529 48.6553C60.3339 45.027 61.5591 40.846 61.6562 36.3867H51.9766C51.9768 36.4488 51.9785 36.511 51.9785 36.5732C51.9785 37.8182 51.93 38.66 51.8369 39.8506C51.8121 40.1665 51.5356 40.4022 51.2197 40.3779C50.9035 40.3532 50.6667 40.077 50.6914 39.7607C50.7831 38.588 50.8301 37.7782 50.8301 36.5732C50.8301 36.511 50.8284 36.4488 50.8281 36.3867H42.8477C42.5305 36.3866 42.2734 36.1296 42.2734 35.8125C42.2734 35.4954 42.5305 35.2384 42.8477 35.2383H50.8105C50.7071 31.647 50.1875 28.2495 49.3379 25.1816ZM22.1221 40.7559C24.2222 40.7559 25.9246 42.4585 25.9248 44.5586C25.9248 46.6588 24.2223 48.3613 22.1221 48.3613C20.022 48.3611 18.3193 46.6587 18.3193 44.5586C18.3196 42.4587 20.0222 40.7561 22.1221 40.7559ZM49.5029 40.7559C51.6029 40.756 53.3054 42.4586 53.3057 44.5586C53.3057 46.6587 51.603 48.3612 49.5029 48.3613C47.4027 48.3613 45.7002 46.6588 45.7002 44.5586C45.7004 42.4586 47.4029 40.7559 49.5029 40.7559ZM22.1221 41.9043C20.6566 41.9045 19.468 43.0932 19.4678 44.5586C19.4678 46.0242 20.6565 47.2126 22.1221 47.2129C23.5879 47.2129 24.7764 46.0244 24.7764 44.5586C24.7761 43.093 23.5877 41.9043 22.1221 41.9043ZM49.5029 41.9043C48.0373 41.9043 46.8489 43.093 46.8486 44.5586C46.8486 46.0244 48.0372 47.2128 49.5029 47.2129C50.9686 47.2127 52.1572 46.0243 52.1572 44.5586C52.157 43.0931 50.9684 41.9045 49.5029 41.9043ZM35.9248 31.6377C39.0394 31.7954 41.5166 34.3706 41.5166 37.5244L41.5088 37.8271C41.351 40.9416 38.7757 43.4189 35.6221 43.4189L35.3184 43.4111C32.3046 43.2581 29.888 40.841 29.7354 37.8271L29.7275 37.5244C29.7275 34.2691 32.3668 31.63 35.6221 31.6299L35.9248 31.6377ZM35.6221 32.7783C33.0013 32.7785 30.876 34.9036 30.876 37.5244C30.8762 40.1451 33.0014 42.2694 35.6221 42.2695C38.2428 42.2694 40.367 40.1451 40.3672 37.5244C40.3672 34.9035 38.2429 32.7784 35.6221 32.7783ZM13.5195 22.7168C11.3493 26.4032 10.0682 30.6749 9.96875 35.2383H19.2852C19.3879 31.5827 19.9109 28.109 20.7764 24.9561C17.9655 24.3623 15.504 23.6029 13.5195 22.7168ZM58.0244 22.5801C55.9896 23.5251 53.4212 24.3331 50.4668 24.957C51.3324 28.1098 51.8562 31.583 51.959 35.2383H61.6562C61.5556 30.6184 60.2438 26.2975 58.0244 22.5801ZM35.2383 10.1562C31.3148 10.3279 27.6748 13.1253 24.959 17.7715C23.8802 19.6171 22.958 21.7403 22.2314 24.0752C26.0527 24.7909 30.4884 25.2118 35.2383 25.2334V10.1562ZM36.3867 25.2314C40.9934 25.1897 45.2942 24.7717 49.0127 24.0752C48.2862 21.7404 47.3648 19.6171 46.2861 17.7715C43.6585 13.276 40.1645 10.511 36.3867 10.1807V25.2314ZM40.9219 10.4668C43.3742 11.8729 45.5394 14.2181 47.2773 17.1914C48.421 19.148 49.3882 21.3923 50.1445 23.8516C52.9967 23.2543 55.4635 22.4864 57.4082 21.5996C53.6804 15.947 47.7939 11.8446 40.9219 10.4668ZM30.1064 10.5938C23.4372 12.0963 17.7443 16.1761 14.1289 21.7324C16.0259 22.5635 18.3883 23.2831 21.0977 23.8506C21.8538 21.3915 22.8233 19.1479 23.9668 17.1914C25.6537 14.3055 27.7427 12.0119 30.1064 10.5938Z" fill="currentColor"/>
</svg>
