<svg width="72" height="72" viewBox="0 0 72 72" fill="none" xmlns="http://www.w3.org/2000/svg">
<path d="M36.3018 53.7832C39.8295 53.9618 42.6348 56.8785 42.6348 60.4502L42.626 60.793C42.4474 64.3202 39.531 67.1248 35.959 67.125L35.6152 67.1172C32.2013 66.9441 29.4638 64.2065 29.291 60.793L29.2822 60.4502C29.2822 56.7635 32.2719 53.7746 35.959 53.7744L36.3018 53.7832ZM37.6797 61.4287C37.231 61.8548 36.6266 62.119 35.959 62.1191L35.7031 62.1064C35.1367 62.049 34.6272 61.8009 34.2363 61.4297C33.2281 62.1009 32.4872 63.2774 32.2744 64.4023C33.24 65.3025 34.5347 65.8544 35.959 65.8545C37.3833 65.8544 38.6781 65.3024 39.6436 64.4023C39.4306 63.2766 38.6889 62.0997 37.6797 61.4287ZM35.959 55.0449C32.9735 55.0451 30.5527 57.4655 30.5527 60.4502C30.5528 61.6436 30.9404 62.7465 31.5957 63.6406C31.9599 62.5116 32.7286 61.432 33.7275 60.752C33.5533 60.4108 33.4552 60.0245 33.4551 59.6152C33.4553 58.2329 34.5764 57.1123 35.959 57.1123L36.2148 57.125C37.4771 57.2533 38.4617 58.3194 38.4619 59.6152C38.4618 60.0241 38.3614 60.4091 38.1875 60.75C39.1878 61.4299 39.9569 62.5104 40.3213 63.6406C40.9767 62.7464 41.3642 61.6438 41.3643 60.4502C41.3643 57.4655 38.9444 55.0451 35.959 55.0449ZM35.959 57.959C35.0442 57.959 34.302 58.7008 34.3018 59.6152C34.302 60.5296 35.0442 61.2715 35.959 61.2715C36.8736 61.2713 37.615 60.5295 37.6152 59.6152C37.615 58.7009 36.8736 57.9592 35.959 57.959ZM18.9229 54.4072C19.1493 54.1392 19.5503 54.1057 19.8184 54.332C22.1578 56.3081 24.8651 57.8629 27.8213 58.8789C28.1527 58.9932 28.3298 59.3549 28.2158 59.6865C28.1017 60.0179 27.7397 60.1945 27.4082 60.0811C24.3005 59.013 21.4555 57.3785 18.998 55.3027C18.7303 55.0763 18.6966 54.6752 18.9229 54.4072ZM52.1016 54.332C52.3696 54.1056 52.7706 54.1393 52.9971 54.4072C53.223 54.6752 53.1896 55.0764 52.9219 55.3027C50.4643 57.3787 47.6195 59.013 44.5117 60.0811C44.1803 60.1948 43.8194 60.0177 43.7051 59.6865C43.5911 59.3548 43.767 58.9931 44.0986 58.8789C47.055 57.8629 49.762 56.3083 52.1016 54.332ZM13.7695 42.1006C17.2973 42.2792 20.1025 45.1959 20.1025 48.7676L20.0938 49.1104C19.9152 52.6376 16.9987 55.4422 13.4268 55.4424L13.083 55.4346C9.66895 55.2617 6.93161 52.524 6.75879 49.1104L6.75 48.7676C6.75 45.0808 9.73952 42.0918 13.4268 42.0918L13.7695 42.1006ZM58.417 42.1006C61.9447 42.2792 64.75 45.1959 64.75 48.7676L64.7412 49.1104C64.5626 52.6376 61.6462 55.4422 58.0742 55.4424L57.7305 55.4346C54.3164 55.2616 51.5791 52.524 51.4062 49.1104L51.3975 48.7676C51.3975 45.0808 54.387 42.0918 58.0742 42.0918L58.417 42.1006ZM15.1475 49.7471C14.6988 50.1731 14.0942 50.4363 13.4268 50.4365L13.1709 50.4238C12.6042 50.3664 12.0941 50.1186 11.7031 49.7471C10.695 50.418 9.95321 51.594 9.74023 52.7188C10.7061 53.6197 12.0016 54.1719 13.4268 54.1719C14.8504 54.1718 16.144 53.62 17.1094 52.7207C16.8967 51.5953 16.1562 50.4183 15.1475 49.7471ZM59.7959 49.7471C59.3473 50.1731 58.7427 50.4363 58.0752 50.4365L57.8193 50.4238C57.2526 50.3664 56.7425 50.1186 56.3516 49.7471C55.3432 50.4182 54.6014 51.5947 54.3887 52.7197C55.3544 53.6201 56.6496 54.1719 58.0742 54.1719C59.4986 54.1718 60.7933 53.6199 61.7588 52.7197C61.5459 51.5945 60.8045 50.4182 59.7959 49.7471ZM13.4268 43.3623C10.4411 43.3623 8.02051 45.7827 8.02051 48.7676C8.02057 49.9608 8.40834 51.063 9.06348 51.957C9.42794 50.8281 10.1963 49.7491 11.1953 49.0693C11.0211 48.7281 10.9229 48.3419 10.9229 47.9326C10.9231 46.5503 12.0442 45.4297 13.4268 45.4297L13.6826 45.4424C14.9447 45.5708 15.9295 46.6369 15.9297 47.9326C15.9297 48.342 15.8285 48.7271 15.6543 49.0684C16.6545 49.7484 17.4229 50.8288 17.7871 51.959C18.4432 51.0645 18.832 49.9618 18.832 48.7676C18.832 45.7829 16.4122 43.3625 13.4268 43.3623ZM58.0742 43.3623C55.0886 43.3623 52.668 45.7827 52.668 48.7676C52.668 49.961 53.0555 51.0638 53.7109 51.958C54.0752 50.8287 54.8444 49.7493 55.8438 49.0693C55.6696 48.7281 55.5713 48.3419 55.5713 47.9326C55.5715 46.5503 56.6926 45.4297 58.0752 45.4297L58.3311 45.4424C59.5931 45.5708 60.5779 46.6368 60.5781 47.9326C60.5781 48.342 60.4769 48.7271 60.3027 49.0684C61.3027 49.7482 62.0712 50.8281 62.4355 51.958C63.0911 51.0637 63.4794 49.9613 63.4795 48.7676C63.4795 45.7829 61.0596 43.3625 58.0742 43.3623ZM13.4268 46.2764C12.5119 46.2764 11.7697 47.0182 11.7695 47.9326C11.7695 48.8472 12.5118 49.5889 13.4268 49.5889C14.3414 49.5885 15.083 48.847 15.083 47.9326C15.0828 47.0184 14.3413 46.2768 13.4268 46.2764ZM58.0752 46.2764C57.1604 46.2764 56.4182 47.0182 56.418 47.9326C56.418 48.8472 57.1602 49.5889 58.0752 49.5889C58.9898 49.5885 59.7314 48.847 59.7314 47.9326C59.7312 47.0184 58.9897 46.2767 58.0752 46.2764ZM35.8623 21.0234C35.8947 21.0232 35.9275 21.0225 35.96 21.0225L36.3262 21.0273C43.9606 21.2211 50.0944 27.4449 50.1445 35.1133C50.1492 35.1443 50.1553 35.1757 50.1553 35.208C50.1553 35.239 50.1498 35.269 50.1455 35.2988L50.1426 35.5742C49.9483 43.2391 43.6725 49.3932 35.96 49.3936L35.8623 49.3916C35.8259 49.3981 35.7883 49.4033 35.75 49.4033C35.7041 49.4033 35.6594 49.398 35.6162 49.3887H35.5938C28.0492 49.1977 21.9686 43.1177 21.7773 35.5742L21.7734 35.333C21.7654 35.2926 21.7617 35.2508 21.7617 35.208C21.7617 35.1662 21.7657 35.1255 21.7734 35.0859C21.838 27.4223 27.9799 21.2077 35.6162 21.0264C35.6593 21.0171 35.7041 21.0127 35.75 21.0127C35.7882 21.0127 35.826 21.017 35.8623 21.0234ZM36.3857 47.877C37.6511 47.6803 39.0102 46.6115 40.1504 44.4902C40.4335 43.9634 40.6913 43.3847 40.9248 42.7637C39.5483 42.4997 38.0155 42.3402 36.3857 42.3164V47.877ZM35.1143 42.3232C33.6397 42.3662 32.2506 42.5221 30.9922 42.7637C31.2257 43.3848 31.4844 43.9633 31.7676 44.4902C32.7829 46.3794 33.9725 47.4336 35.1143 47.7812V42.3232ZM42.1787 43.0439C41.4671 44.9964 40.4945 46.5932 39.3574 47.6699C41.6299 47.0518 43.6508 45.8277 45.2412 44.1836C44.4077 43.7373 43.3702 43.3501 42.1787 43.0439ZM29.7402 43.0439C28.5488 43.3502 27.5112 43.7372 26.6777 44.1836C28.2667 45.8259 30.285 47.0493 32.5547 47.668C31.4194 46.5914 30.451 44.9939 29.7402 43.0439ZM23.0586 35.8438C23.1931 38.618 24.205 41.1606 25.8203 43.2051C26.7841 42.652 27.9824 42.1891 29.3447 41.833C28.824 40.0366 28.509 38.004 28.457 35.8438H23.0586ZM43.4609 35.8438C43.4089 38.004 43.0939 40.0365 42.5732 41.833C43.935 42.1889 45.133 42.6514 46.0967 43.2041C47.7118 41.1596 48.7249 38.618 48.8594 35.8438H43.4609ZM10.6279 31.0322C10.9753 31.0805 11.218 31.4016 11.1699 31.749C11.0137 32.8792 10.9336 34.0342 10.9336 35.208C10.9336 37.241 11.1757 39.2172 11.6328 41.1084C11.7149 41.4492 11.5048 41.7925 11.1641 41.875C10.8233 41.9572 10.4801 41.7478 10.3975 41.4072C9.91686 39.419 9.66215 37.3424 9.66211 35.208C9.66212 33.9759 9.74697 32.7628 9.91113 31.5752C9.95919 31.2276 10.2804 30.9842 10.6279 31.0322ZM61.292 31.0322C61.6394 30.9844 61.9607 31.2277 62.0088 31.5752C62.173 32.7628 62.2578 33.9759 62.2578 35.208C62.2578 37.3424 62.0031 39.419 61.5225 41.4072C61.4399 41.7478 61.0965 41.957 60.7559 41.875C60.4149 41.7926 60.2049 41.4493 60.2871 41.1084C60.7442 39.2172 60.9873 37.241 60.9873 35.208C60.9873 34.0343 60.9062 32.8792 60.75 31.749C60.7019 31.4015 60.9444 31.0803 61.292 31.0322ZM29.7275 35.8438C29.7802 37.9243 30.0881 39.8601 30.584 41.5469C31.9811 41.2681 33.5116 41.0956 35.1143 41.0508V35.8438H29.7275ZM36.3857 41.0449C38.1399 41.0696 39.8151 41.2441 41.333 41.5469C41.8289 39.86 42.1378 37.9244 42.1904 35.8438H36.3857V41.0449ZM30.7061 28.4746C30.1397 30.2515 29.7843 32.3273 29.7275 34.5723H35.1143V28.9463C33.5573 28.9027 32.0695 28.7392 30.7061 28.4746ZM45.8643 26.9219C44.9154 27.4331 43.7599 27.8648 42.4561 28.1973C43.0458 30.0864 43.4052 32.2557 43.4609 34.5723H48.8594C48.7185 31.666 47.616 29.0132 45.8643 26.9219ZM41.2109 28.4756C39.7269 28.7634 38.0947 28.9301 36.3857 28.9541V34.5723H42.1904C42.1337 32.3275 41.7772 30.2523 41.2109 28.4756ZM26.0557 26.9189C24.3026 29.0106 23.1996 31.6649 23.0586 34.5723H28.457C28.5128 32.2549 28.8727 30.0849 29.4629 28.1953C28.1596 27.863 27.0051 27.4306 26.0557 26.9189ZM13.7695 17.4854C17.2973 17.664 20.1025 20.5807 20.1025 24.1523L20.0938 24.4951C19.9149 28.0221 16.9986 30.8269 13.4268 30.8271L13.083 30.8193C9.66911 30.6464 6.93185 27.9086 6.75879 24.4951L6.75 24.1523C6.75 20.4656 9.73952 17.4766 13.4268 17.4766L13.7695 17.4854ZM58.417 17.4854C61.9447 17.664 64.75 20.5807 64.75 24.1523L64.7412 24.4951C64.5624 28.0221 61.646 30.8269 58.0742 30.8271L57.7305 30.8193C54.3166 30.6464 51.5793 27.9085 51.4062 24.4951L51.3975 24.1523C51.3975 20.4656 54.387 17.4766 58.0742 17.4766L58.417 17.4854ZM15.1465 25.1309C14.6979 25.5567 14.0941 25.8211 13.4268 25.8213L13.1709 25.8086C12.6043 25.7512 12.0941 25.5032 11.7031 25.1318C10.695 25.8028 9.95321 26.9787 9.74023 28.1035C10.7061 29.0043 12.0018 29.5566 13.4268 29.5566C14.8503 29.5565 16.1441 29.0047 17.1094 28.1055C16.8966 26.9796 16.1558 25.802 15.1465 25.1309ZM59.7949 25.1309C59.3463 25.5567 58.7425 25.8211 58.0752 25.8213L57.8193 25.8086C57.2528 25.7512 56.7425 25.5033 56.3516 25.1318C55.3432 25.803 54.6014 26.9794 54.3887 28.1045C55.3544 29.0047 56.6497 29.5566 58.0742 29.5566C59.4987 29.5565 60.7933 29.0038 61.7588 28.1035C61.5456 26.9782 60.8038 25.8016 59.7949 25.1309ZM36.3857 27.6826C37.9552 27.6597 39.4365 27.5122 40.7754 27.2646C40.5823 26.7896 40.3737 26.3424 40.1504 25.9268C39.0101 23.8049 37.6513 22.7338 36.3857 22.5371V27.6826ZM35.1143 22.6328C33.9723 22.9806 32.7831 24.037 31.7676 25.9268C31.5445 26.3419 31.3354 26.7883 31.1426 27.2627C32.3616 27.4882 33.6988 27.6345 35.1143 27.6758V22.6328ZM13.4268 18.7471C10.4411 18.7471 8.02051 21.1675 8.02051 24.1523C8.02067 25.3455 8.40829 26.4478 9.06348 27.3418C9.42794 26.2129 10.1963 25.1338 11.1953 24.4541C11.0211 24.1129 10.9229 23.7267 10.9229 23.3174C10.9231 21.935 12.0442 20.8145 13.4268 20.8145L13.6826 20.8271C14.9447 20.9556 15.9295 22.0216 15.9297 23.3174C15.9296 23.7269 15.8277 24.1118 15.6533 24.4531C16.6536 25.133 17.4227 26.2126 17.7871 27.3428C18.4429 26.4485 18.8319 25.3462 18.832 24.1523C18.832 21.1676 16.4122 18.7473 13.4268 18.7471ZM58.0742 18.7471C55.0886 18.7471 52.668 21.1675 52.668 24.1523C52.6681 25.3457 53.0555 26.4487 53.7109 27.3428C54.0752 26.2134 54.8444 25.1341 55.8438 24.4541C55.6695 24.1129 55.5714 23.7266 55.5713 23.3174C55.5715 21.935 56.6926 20.8145 58.0752 20.8145L58.3311 20.8271C59.5931 20.9556 60.5779 22.0216 60.5781 23.3174C60.578 23.7269 60.4761 24.1118 60.3018 24.4531C61.3018 25.1328 62.071 26.212 62.4355 27.3418C63.0909 26.4477 63.4793 25.3457 63.4795 24.1523C63.4795 21.1676 61.0596 18.7473 58.0742 18.7471ZM39.3574 22.7451C40.4201 23.7511 41.3378 25.2117 42.0342 26.9922C43.1563 26.7129 44.146 26.3594 44.9648 25.9541C43.4192 24.4499 41.5001 23.3278 39.3574 22.7451ZM32.5586 22.7461C30.416 23.3293 28.4967 24.4515 26.9512 25.9561C27.7696 26.3613 28.7609 26.7117 29.8838 26.9912C30.5798 25.212 31.4968 23.7519 32.5586 22.7461ZM13.4268 21.6611C12.5119 21.6611 11.7697 22.403 11.7695 23.3174C11.7698 24.2317 12.512 24.9736 13.4268 24.9736C14.3412 24.9732 15.0827 24.2315 15.083 23.3174C15.0828 22.4032 14.3413 21.6615 13.4268 21.6611ZM58.0752 21.6611C57.1604 21.6611 56.4182 22.403 56.418 23.3174C56.4182 24.2317 57.1604 24.9736 58.0752 24.9736C58.9897 24.9733 59.7312 24.2315 59.7314 23.3174C59.7312 22.4032 58.9897 21.6615 58.0752 21.6611ZM27.4082 10.3359C27.74 10.2221 28.1018 10.3987 28.2158 10.7305C28.3291 11.0619 28.1525 11.423 27.8213 11.5371C24.0949 12.8178 20.7651 14.9542 18.0674 17.7119C17.8222 17.9626 17.4198 17.9666 17.1689 17.7217C16.9182 17.4763 16.9139 17.0741 17.1592 16.8232C19.9927 13.9267 23.491 11.6822 27.4082 10.3359ZM43.7051 10.7305C43.8191 10.3987 44.1799 10.222 44.5117 10.3359C48.4287 11.6822 51.9274 13.9269 54.7607 16.8232C55.0057 17.0741 55.0017 17.4765 54.751 17.7217C54.5003 17.9669 54.0979 17.9623 53.8525 17.7119C51.1549 14.9543 47.8248 12.8178 44.0986 11.5371C43.7672 11.423 43.5915 11.062 43.7051 10.7305ZM36.3018 4.13379C39.8295 4.3124 42.6348 7.22909 42.6348 10.8008L42.626 11.1436C42.4474 14.6708 39.531 17.4754 35.959 17.4756L35.6152 17.4678C32.2013 17.2947 29.4638 14.5571 29.291 11.1436L29.2822 10.8008C29.2822 7.11412 32.2719 4.12519 35.959 4.125L36.3018 4.13379ZM37.6797 11.7793C37.231 12.2055 36.6267 12.4696 35.959 12.4697L35.7031 12.457C35.1366 12.3996 34.6273 12.1516 34.2363 11.7803C33.2281 12.4514 32.4872 13.628 32.2744 14.7529C33.24 15.653 34.5347 16.205 35.959 16.2051C37.3833 16.205 38.6781 15.653 39.6436 14.7529C39.4306 13.6272 38.6889 12.4502 37.6797 11.7793ZM35.959 5.39551C32.9735 5.39569 30.5527 7.81604 30.5527 10.8008C30.5528 11.9942 30.9404 13.0971 31.5957 13.9912C31.9599 12.8622 32.7286 11.7826 33.7275 11.1025C33.5534 10.7613 33.4551 10.3751 33.4551 9.96582C33.4553 8.58345 34.5764 7.46289 35.959 7.46289L36.2148 7.47559C37.4771 7.60387 38.4617 8.66994 38.4619 9.96582C38.4619 10.3751 38.3616 10.7604 38.1875 11.1016C39.1876 11.7814 39.957 12.8612 40.3213 13.9912C40.9767 13.097 41.3642 11.9944 41.3643 10.8008C41.3643 7.81607 38.9444 5.39573 35.959 5.39551ZM35.959 8.30957C35.0442 8.30957 34.302 9.05141 34.3018 9.96582C34.3018 10.8804 35.044 11.6221 35.959 11.6221C36.8738 11.6219 37.6152 10.8803 37.6152 9.96582C37.615 9.05153 36.8736 8.30977 35.959 8.30957Z" fill="currentColor"/>
</svg>
