<svg width="72" height="72" viewBox="0 0 72 72" fill="none" xmlns="http://www.w3.org/2000/svg">
<path d="M40.0304 46.0496C40.4848 46.2583 40.9966 46.3059 41.4817 46.1848C41.9668 46.0636 42.3961 45.7808 42.699 45.383L43.48 44.36C43.8898 43.8135 44.4213 43.37 45.0323 43.0645C45.6432 42.759 46.3169 42.6 47 42.6H53.6C54.767 42.6 55.8861 43.0636 56.7113 43.8887C57.5364 44.7139 58 45.833 58 47V53.6C58 54.767 57.5364 55.8861 56.7113 56.7113C55.8861 57.5364 54.767 58 53.6 58C43.0974 58 33.025 53.8279 25.5986 46.4014C18.1721 38.975 14 28.9026 14 18.4C14 17.233 14.4636 16.1139 15.2887 15.2887C16.1139 14.4636 17.233 14 18.4 14H25C26.167 14 27.2861 14.4636 28.1113 15.2887C28.9364 16.1139 29.4 17.233 29.4 18.4V25C29.4 25.6831 29.241 26.3568 28.9355 26.9677C28.63 27.5787 28.1865 28.1102 27.64 28.52L26.6104 29.2922C26.2065 29.6006 25.9218 30.0393 25.8047 30.5338C25.6876 31.0283 25.7453 31.548 25.968 32.0048C28.9747 38.1117 33.9197 43.0506 40.0304 46.0496Z" stroke="currentColor" stroke-width="1.46667" stroke-linecap="round" stroke-linejoin="round"/>
</svg>
