<svg width="24" height="24" viewBox="0 0 24 24" fill="none" xmlns="http://www.w3.org/2000/svg">
<path d="M2.66699 0.5H21.333C21.9076 0.5 22.4589 0.728437 22.8652 1.13477C23.2716 1.54109 23.5 2.09236 23.5 2.66699V21.333C23.5 21.9076 23.2716 22.4589 22.8652 22.8652C22.4589 23.2716 21.9076 23.5 21.333 23.5H2.66699C2.09236 23.5 1.54109 23.2716 1.13477 22.8652C0.728437 22.4589 0.5 21.9076 0.5 21.333V2.66699C0.5 2.09236 0.728437 1.54109 1.13477 1.13477C1.54109 0.728437 2.09236 0.5 2.66699 0.5ZM2.83301 21.167H7.52637V9.00684H2.83301V21.167ZM16.3203 8.75293C15.4433 8.75293 14.4838 9.10769 13.7266 9.70312V9.00684H9.00684V21.167H13.7266V14.0938C13.7266 13.3385 14.3342 12.7266 15.0801 12.7266C15.4424 12.7266 15.7896 12.8708 16.0459 13.127C16.3022 13.3833 16.4463 13.7313 16.4463 14.0938V21.167H21.167V13.5996C21.1669 12.3143 20.6559 11.0817 19.7471 10.1729C18.8382 9.26402 17.6056 8.75301 16.3203 8.75293ZM5.17285 2.41992C4.4428 2.42005 3.7428 2.71033 3.22656 3.22656C2.71033 3.7428 2.42005 4.4428 2.41992 5.17285C2.41992 6.69269 3.6608 7.91283 5.17285 7.91309C5.89954 7.91309 6.5965 7.6242 7.11035 7.11035C7.6242 6.5965 7.91309 5.89954 7.91309 5.17285C7.91283 3.6608 6.69269 2.41992 5.17285 2.41992Z" fill="#651415" stroke="#651415"/>
</svg>
